<?xml version="1.0" standalone="no"?>
<!DOCTYPE svg PUBLIC "-//W3C//DTD SVG 20010904//EN"
 "http://www.w3.org/TR/2001/REC-SVG-20010904/DTD/svg10.dtd">
<svg version="1.0" xmlns="http://www.w3.org/2000/svg"
 width="512.000000pt" height="512.000000pt" viewBox="0 0 512.000000 512.000000"
 preserveAspectRatio="xMidYMid meet">
<metadata>
Created by potrace 1.16, written by Peter Selinger 2001-2019
</metadata>
<defs>
<linearGradient id="hGrad" x1="0" y1="1" x2="1" y2="0"
  gradientUnits="objectBoundingBox">
  <stop offset="0%" stop-color="#2ae3fc"/>
  <stop offset="25%" stop-color="#3dc2f0"/>
  <stop offset="50%" stop-color="#5b97de"/>
  <stop offset="75%" stop-color="#6bb0d6"/>
  <stop offset="100%" stop-color="#75f8d2"/>
</linearGradient>
</defs>
<g transform="translate(0.000000,512.000000) scale(0.100000,-0.100000)"
fill="url(#hGrad)" stroke="none">
<path fill="url(#hGrad)" d="M680 2550 l0 -2250 625 0 625 0 0 925 0 925 625 0 625 0 0 -925 0
-925 630 0 630 0 0 2250 0 2250 -630 0 -630 0 0 -840 0 -840 -625 0 -625 0 0
840 0 840 -625 0 -625 0 0 -2250z"/>
</g>
</svg>
